<svg width="76" height="24" viewBox="0 0 76 24" fill="none" xmlns="http://www.w3.org/2000/svg">
<g id="Logo" clip-path="url(#clip0_480_2315)">
<path id="Vector" d="M48.6237 17.5112C48.6237 18.4128 48.0403 19.1553 47.3244 19.2348L30.3538 20.5076C29.3197 20.5872 28.4976 19.7651 28.4711 18.678L28.4711 5.31365C28.4711 4.25299 29.3197 3.40446 30.3538 3.48401L47.2713 4.75681C48.0138 4.80984 48.5706 5.57882 48.5706 6.48038L48.6237 17.5112Z" fill="#AFCDDB"/>
<path id="Vector_2" d="M48.5971 11.3331L28.4711 11.2005L28.4711 6.4806L48.5971 7.46171L48.5971 11.3331Z" fill="#333333"/>
<path id="Vector_3" d="M46.2108 12.9769L31.8123 13.1625L31.8123 16.9809L46.2108 16.318L46.2108 12.9769Z" fill="white"/>
<g id="Group">
<path id="Vector_4" d="M35.5247 15.549C35.4982 14.78 36.4262 14.3293 36.93 14.0906C37.7521 13.7459 36.877 15.0982 36.6914 15.2839C36.1876 15.8937 35.5247 16.3975 34.8352 16.8218C34.4375 17.0605 34.0397 17.2461 33.589 17.3787C33.3238 17.4847 33.0321 17.5112 32.767 17.4582C32.1306 17.2991 32.1306 16.8218 32.7139 16.0793C32.9791 15.9203 33.2443 15.8142 33.5625 15.8142C34.7027 15.6816 35.7898 16.1854 36.877 16.265C36.9831 16.265 36.9831 16.1059 36.877 16.1059C35.6042 15.9998 33.695 15.0452 32.4753 16.1059C31.6798 16.7953 32.2631 17.7499 33.0852 17.7234C34.1723 17.6969 35.286 16.8483 36.0815 16.1589C36.5323 15.7612 37.8581 14.6475 37.3543 13.8785C37.3278 13.852 37.3013 13.8254 37.2748 13.852C36.5588 14.0376 35.286 14.6209 35.3391 15.6286C35.3391 15.6816 35.5247 15.6551 35.5247 15.549" fill="#4F5B60"/>
<path id="Vector_5" d="M36.824 15.9998C37.0626 16.8748 38.468 15.7877 38.7332 15.3634C38.7862 15.3104 38.7066 15.2308 38.6536 15.2308C38.1233 15.1778 37.4338 15.7611 37.3013 16.371C37.2747 16.4506 37.3278 16.5036 37.4073 16.4771C37.9377 16.318 38.3884 16.0793 38.8923 15.8407C39.1044 15.7346 39.1839 15.9202 39.3961 15.9202L40.6689 15.9202C41.1992 15.9202 41.65 15.6286 42.1538 15.602C42.8167 15.5755 43.2675 15.7081 43.9039 15.3899C44.0365 15.3104 44.3016 15.0452 44.116 14.8596C43.7713 14.4618 42.6841 14.9126 43.2675 15.3369C43.9304 15.8407 45.1501 15.6816 45.8926 15.6816C45.9987 15.6816 45.9987 15.5225 45.8926 15.5225C45.5214 15.5225 45.1236 15.496 44.7789 15.4695C44.4872 15.4429 44.1956 15.4164 43.8774 15.3634C43.7448 15.3369 42.7371 14.9656 43.6652 14.8861C43.6917 15.0187 43.7183 15.1513 43.7183 15.3104C43.6387 15.3369 43.5326 15.3899 43.4531 15.4164C43.294 15.4695 43.1084 15.496 42.9228 15.5225C42.6046 15.5755 42.2598 15.4429 41.9151 15.4695C41.4644 15.496 41.0666 15.7346 40.6158 15.7611C40.4037 15.7611 39.237 15.9202 39.1309 15.6551C39.1044 15.6286 39.0779 15.602 39.0514 15.6286C38.8127 15.7611 38.6006 15.8672 38.3354 15.9733C38.2559 15.9998 37.5134 16.265 37.4869 16.2915C37.646 15.9202 37.9907 15.6286 38.3354 15.496C38.2824 15.7081 38.1233 15.8672 37.9377 15.9468C37.5664 16.2119 37.2217 16.2384 36.9035 16.0263C36.9565 15.8142 36.7974 15.8672 36.824 15.9998" fill="#4F5B60"/>
</g>
</g>
<defs>
<clipPath id="clip0_480_2315">
<rect width="76" height="24" fill="white"/>
</clipPath>
</defs>
</svg>
