<svg width="20" height="20" viewBox="0 0 20 20" fill="none" xmlns="http://www.w3.org/2000/svg">
<path d="M16.75 19C17.4956 19 18.1 18.3956 18.1 17.65C18.1 16.9045 17.4956 16.3 16.75 16.3C16.0045 16.3 15.4 16.9045 15.4 17.65C15.4 18.3956 16.0045 19 16.75 19Z" fill="#848484" stroke="#848484" stroke-width="2" stroke-linecap="round" stroke-linejoin="round"/>
<path d="M7.75002 19C8.49558 19 9.10002 18.3956 9.10002 17.65C9.10002 16.9045 8.49558 16.3 7.75002 16.3C7.00444 16.3 6.40002 16.9045 6.40002 17.65C6.40002 18.3956 7.00444 19 7.75002 19Z" fill="#848484" stroke="#848484" stroke-width="2" stroke-linecap="round" stroke-linejoin="round"/>
<path d="M3.7 2.8H19L17.2 12.7H5.5L3.7 2.8ZM3.7 2.8C3.55 2.2 2.8 1 1 1" stroke="#848484" stroke-width="2" stroke-linecap="round" stroke-linejoin="round"/>
<path d="M17.2 12.7H5.49995H3.90764C2.30177 12.7 1.44995 13.4031 1.44995 14.5C1.44995 15.5969 2.30177 16.3 3.90764 16.3H16.75" stroke="#848484" stroke-width="2" stroke-linecap="round" stroke-linejoin="round"/>
</svg>
