<svg width="18" height="19" viewBox="0 0 18 19" fill="none" xmlns="http://www.w3.org/2000/svg">
<path d="M16.7358 0.113592L0.439147 9.51538C-0.19725 9.88105 -0.116382 10.7671 0.516499 11.0343L4.25401 12.6024L14.3555 3.69991C14.5489 3.52763 14.8231 3.79133 14.6579 3.99174L6.18781 14.3112V17.1416C6.18781 17.9714 7.18987 18.2984 7.68211 17.6971L9.91477 14.9792L14.2957 16.8146C14.795 17.0256 15.3646 16.7126 15.456 16.1747L17.9875 0.985561C18.1071 0.275329 17.3441 -0.238008 16.7358 0.113592Z" fill="#407235"/>
<path d="M16.7358 0.113592L0.439147 9.51538C-0.19725 9.88105 -0.116382 10.7671 0.516499 11.0343L4.25401 12.6024L14.3555 3.69991C14.5489 3.52763 14.8231 3.79133 14.6579 3.99174L6.18781 14.3112V17.1416C6.18781 17.9714 7.18987 18.2984 7.68211 17.6971L9.91477 14.9792L14.2957 16.8146C14.795 17.0256 15.3646 16.7126 15.456 16.1747L17.9875 0.985561C18.1071 0.275329 17.3441 -0.238008 16.7358 0.113592Z" fill="black" fill-opacity="0.2"/>
</svg>
