<svg width="18" height="19" viewBox="0 0 18 19" fill="none" xmlns="http://www.w3.org/2000/svg">
<path d="M16.5 4.8125H13.3125V4.4375C13.3125 2.05625 11.3813 0.125 9 0.125C6.61875 0.125 4.6875 2.05625 4.6875 4.4375V4.8125H1.5C1.08516 4.8125 0.75 5.14766 0.75 5.5625V18.125C0.75 18.5398 1.08516 18.875 1.5 18.875H16.5C16.9148 18.875 17.25 18.5398 17.25 18.125V5.5625C17.25 5.14766 16.9148 4.8125 16.5 4.8125ZM6.375 4.4375C6.375 2.98672 7.54922 1.8125 9 1.8125C10.4508 1.8125 11.625 2.98672 11.625 4.4375V4.8125H6.375V4.4375ZM15.5625 17.1875H2.4375V6.5H4.6875V8.5625C4.6875 8.66562 4.77187 8.75 4.875 8.75H6.1875C6.29063 8.75 6.375 8.66562 6.375 8.5625V6.5H11.625V8.5625C11.625 8.66562 11.7094 8.75 11.8125 8.75H13.125C13.2281 8.75 13.3125 8.66562 13.3125 8.5625V6.5H15.5625V17.1875Z" fill="#284D19"/>
</svg>
