<svg width="24" height="25" viewBox="0 0 24 25" fill="none" xmlns="http://www.w3.org/2000/svg">
<path d="M21.375 7.58516L18.375 9.3125V5.75C18.375 4.92266 17.7023 4.25 16.875 4.25H3C2.17266 4.25 1.5 4.92266 1.5 5.75V19.25C1.5 20.0773 2.17266 20.75 3 20.75H16.875C17.7023 20.75 18.375 20.0773 18.375 19.25V15.6875L21.375 17.4148C21.8742 17.7031 22.5 17.3422 22.5 16.768V8.23438C22.5 7.65781 21.8742 7.29687 21.375 7.58516ZM16.6875 19.0625H3.1875V5.9375H16.6875V19.0625ZM20.8125 15.1484L18.375 13.7469V11.2555L20.8125 9.85156V15.1484ZM4.875 8.9375H7.5C7.60313 8.9375 7.6875 8.85313 7.6875 8.75V7.625C7.6875 7.52187 7.60313 7.4375 7.5 7.4375H4.875C4.77187 7.4375 4.6875 7.52187 4.6875 7.625V8.75C4.6875 8.85313 4.77187 8.9375 4.875 8.9375Z" fill="#284D19"/>
</svg>
